<?xml version="1.0" encoding="UTF-8" standalone="no"?>
<!-- Uploaded to: SVG Repo, www.svgrepo.com, Generator: SVG Repo Mixer Tools -->

<svg
   height="400"
   width="600.76617"
   version="1.1"
   id="Layer_1"
   viewBox="0 0 384.49035 256"
   xml:space="preserve"
   sodipodi:docname="donation-money-svgrepo-com.svg"
   inkscape:version="1.4.3 (0d15f75042, 2025-12-25)"
   xmlns:inkscape="http://www.inkscape.org/namespaces/inkscape"
   xmlns:sodipodi="http://sodipodi.sourceforge.net/DTD/sodipodi-0.dtd"
   xmlns="http://www.w3.org/2000/svg"
   xmlns:svg="http://www.w3.org/2000/svg"><defs
   id="defs4" /><sodipodi:namedview
   id="namedview4"
   pagecolor="#ffffff"
   bordercolor="#000000"
   borderopacity="0.25"
   inkscape:showpageshadow="2"
   inkscape:pageopacity="0.0"
   inkscape:pagecheckerboard="0"
   inkscape:deskcolor="#d1d1d1"
   inkscape:zoom="0.22912226"
   inkscape:cx="399.35011"
   inkscape:cy="270.59789"
   inkscape:window-width="1358"
   inkscape:window-height="734"
   inkscape:window-x="0"
   inkscape:window-y="0"
   inkscape:window-maximized="0"
   inkscape:current-layer="Layer_1" />


<rect
   style="fill:none;stroke-width:0.826249"
   id="rect1"
   width="384.49036"
   height="256"
   x="0"
   y="0" /><g
   id="g2"
   transform="translate(64.245178)"><g
     id="g1"
     transform="matrix(0.8,0,0,0.8,37.234,25.6)"><circle
       style="fill:#cee8fa;stroke-width:0.5"
       cx="113.4605"
       cy="61.230999"
       r="54.163502"
       id="circle1" /><g
       id="g4"
       transform="matrix(0.5,0,0,0.5,-14.5425,0)">
	<path
   style="fill:#2d527c"
   d="m 256,244.924 c -67.527,0 -122.463,-54.935 -122.463,-122.462 C 133.537,54.935 188.473,0 256,0 c 67.525,0 122.462,54.937 122.462,122.463 0,67.526 -54.935,122.461 -122.462,122.461 z m 0,-216.655 c -51.939,0 -94.194,42.255 -94.194,94.194 0,51.938 42.255,94.193 94.194,94.193 51.939,0 94.193,-42.255 94.193,-94.193 0,-51.938 -42.254,-94.194 -94.193,-94.194 z"
   id="path1" />
	<path
   style="fill:#2d527c"
   d="m 251.545,180.462 c -19.441,-0.649 -35.318,-10.693 -35.318,-21.061 0,-5.508 4.861,-13.609 11.016,-13.609 6.804,0 12.313,9.559 24.302,11.665 V 131.21 c -14.905,-5.671 -32.402,-12.636 -32.402,-33.375 0,-20.576 15.229,-30.457 32.402,-32.887 v -4.537 c 0,-2.269 2.592,-4.375 6.156,-4.375 3.079,0 6.157,2.106 6.157,4.375 v 4.05 c 10.044,0.324 29,2.916 29,14.095 0,4.375 -2.916,13.285 -10.044,13.285 -5.347,0 -8.424,-5.185 -18.954,-5.994 V 109.5 c 14.742,5.508 31.916,13.123 31.916,34.994 0,20.089 -12.96,32.24 -31.916,35.318 v 4.698 c 0,2.269 -3.079,4.375 -6.157,4.375 -3.565,0 -6.156,-2.106 -6.156,-4.375 v -4.05 h -0.002 z m 1.62,-74.848 v -19.28 c -7.291,1.459 -10.369,5.185 -10.369,9.073 0.001,4.698 4.213,7.614 10.369,10.207 z m 9.073,29.972 v 21.709 c 5.508,-1.296 9.883,-4.375 9.883,-10.207 -10e-4,-5.346 -4.051,-8.749 -9.883,-11.502 z"
   id="path2" />
	<path
   style="fill:#2d527c"
   d="M 397.797,512 H 114.205 C 83.98,512 59.39,487.411 59.39,457.186 V 287.995 c 0,-7.805 6.328,-14.135 14.135,-14.135 7.807,0 14.135,6.329 14.135,14.135 v 169.191 c 0,14.636 11.908,26.545 26.546,26.545 h 283.592 c 14.638,0 26.546,-11.908 26.546,-26.545 V 363.58 c 0,-7.805 6.328,-14.135 14.135,-14.135 7.807,0 14.135,6.329 14.135,14.135 v 93.606 C 452.611,487.411 428.021,512 397.797,512 Z"
   id="path3" />
	<path
   style="fill:#2d527c"
   d="M 431.635,302.13 H 80.365 c -28.276,0 -51.28,-23.004 -51.28,-51.28 0,-28.276 23.004,-51.28 51.28,-51.28 h 24.365 c 7.807,0 14.135,6.329 14.135,14.135 0,7.805 -6.328,14.135 -14.135,14.135 H 80.365 c -12.689,0 -23.011,10.324 -23.011,23.011 0,12.687 10.322,23.011 23.011,23.011 h 351.27 c 12.689,0 23.011,-10.324 23.011,-23.011 0,-12.687 -10.323,-23.011 -23.011,-23.011 H 407.27 c -7.807,0 -14.135,-6.329 -14.135,-14.135 0,-7.805 6.328,-14.135 14.135,-14.135 h 24.365 c 28.276,0 51.28,23.004 51.28,51.28 0,28.276 -23.004,51.28 -51.28,51.28 z"
   id="path4" />
</g></g></g></svg>
