<?xml version="1.0" encoding="UTF-8" standalone="no"?>
<!-- Created with Inkscape (http://www.inkscape.org/) -->

<svg
   version="1.1"
   id="svg2"
   width="2190.0801"
   height="341.76001"
   viewBox="0 0 2190.0801 341.76001"
   sodipodi:docname="ruler.svg"
   inkscape:version="1.2.2 (b0a8486541, 2022-12-01)"
   xmlns:inkscape="http://www.inkscape.org/namespaces/inkscape"
   xmlns:sodipodi="http://sodipodi.sourceforge.net/DTD/sodipodi-0.dtd"
   xmlns="http://www.w3.org/2000/svg"
   xmlns:svg="http://www.w3.org/2000/svg">
  <defs
     id="defs6" />
  <sodipodi:namedview
     id="namedview4"
     pagecolor="#ffffff"
     bordercolor="#000000"
     borderopacity="0.25"
     inkscape:showpageshadow="2"
     inkscape:pageopacity="0.0"
     inkscape:pagecheckerboard="0"
     inkscape:deskcolor="#d1d1d1"
     showgrid="false"
     inkscape:zoom="0.43167452"
     inkscape:cx="1290.324"
     inkscape:cy="114.66973"
     inkscape:window-width="927"
     inkscape:window-height="1064"
     inkscape:window-x="48"
     inkscape:window-y="8"
     inkscape:window-maximized="1"
     inkscape:current-layer="g8" />
  <g
     inkscape:groupmode="layer"
     inkscape:label="Image"
     id="g8"
     transform="translate(454.84183,680.80089)">
    <path
       style="fill:#000000;stroke-width:0.64"
       d="m -454.84183,-509.92089 v -170.88 H 640.19827 1735.2383 v 170.88 170.88001 H 640.19827 -454.84183 Z m 2186.88013,-0.64 v -165.76 h -1.92 -1.92 v 23.68 23.68 h -3.52 -3.52 v -23.68 -23.68 h -6.4 -6.4 v 23.68 23.68 h -3.52 -3.52 v -23.68 -23.68 h -6.72 -6.72 v 23.68 23.68 h -3.52 -3.52 v -23.68 -23.68 h -6.4 -6.4 v 50.88 50.88 h -3.52 -3.52 v -50.88 -50.88 h -6.4 -6.4 v 23.68 23.68 h -3.52 -3.52 v -23.68 -23.68 h -6.4 -6.4 v 23.68 23.68 h -3.52 -3.52 v -23.68 -23.68 h -6.4 -6.4 v 23.68 23.68 h -3.52 -3.52 v -23.68 -23.68 h -6.72 -6.72 v 23.68 23.68 h -3.52 -3.52 v -23.68 -23.68 h -6.4 -6.4 v 35.52 35.52 h -3.52 -3.52 v -35.52 -35.52 h -6.4 -6.4 v 23.68 23.68 h -3.52 -3.52 v -23.68 -23.68 h -6.4 -6.4 v 23.68 23.68 h -3.52 -3.52 v -23.68 -23.68 h -6.72 -6.72 v 23.68 23.68 h -3.52 -3.52 v -23.68 -23.68 h -6.4 -6.4 v 23.68 23.68 h -3.52 -3.52 v -23.68 -23.68 h -6.4 -6.4 v 50.88 50.88 h -3.52 -3.52 v -50.88 -50.88 h -6.4 -6.4 v 23.68 23.68 h -3.52 -3.52 v -23.68 -23.68 h -6.4 -6.4 v 23.68 23.68 h -3.52 -3.52 v -23.68 -23.68 h -6.72 -6.72 v 23.68 23.68 h -3.52 -3.52 v -23.68 -23.68 h -6.4 -6.4 v 23.68 23.68 h -3.52 -3.52 v -23.68 -23.68 h -6.4 -6.4 v 35.52 35.52 h -3.52 -3.52 v -35.52 -35.52 h -6.4 -6.4 v 23.68 23.68 h -3.52 -3.52 v -23.68 -23.68 h -6.4 -6.4 v 23.68 23.68 h -3.52 -3.52 v -23.68 -23.68 h -6.72 -6.72 v 23.68 23.68 h -3.52 -3.52 v -23.68 -23.68 h -6.4 -6.4 v 23.68 23.68 h -3.52 -3.52 v -23.68 -23.68 h -6.4 -6.4 v 50.88 50.88 h -3.52 -3.52 v -50.88 -50.88 h -6.4 -6.4 v 23.68 23.68 h -3.52 -3.52 v -23.68 -23.68 h -6.4 -6.4 v 23.68 23.68 h -3.52 -3.52 v -23.68 -23.68 h -6.72 -6.72 v 23.68 23.68 h -3.52 -3.52 v -23.68 -23.68 h -6.4 -6.4 v 23.68 23.68 h -3.52 -3.52 v -23.68 -23.68 h -6.4 -6.4 v 35.52 35.52 h -3.52 -3.52 v -35.52 -35.52 h -6.4 -6.4 v 23.68 23.68 h -3.52 -3.52 v -23.68 -23.68 h -6.4 -6.4 v 23.68 23.68 h -3.52 -3.52 v -23.68 -23.68 h -6.72 -6.72 v 23.68 23.68 h -3.52 -3.52 v -23.68 -23.68 h -6.4 -6.4 v 23.68 23.68 h -3.52 -3.52 v -23.68 -23.68 h -6.4 -6.4 v 50.88 50.88 h -3.52 -3.52 v -50.88 -50.88 h -6.4 -6.4 v 23.68 23.68 h -3.52 -3.52 v -23.68 -23.68 h -6.72 -6.72 v 23.68 23.68 h -3.52 -3.52 v -23.68 -23.68 h -6.4 -6.4 v 23.68 23.68 h -3.52 -3.52 v -23.68 -23.68 h -6.40003 -6.4 v 23.68 23.68 h -3.52 -3.52 v -23.68 -23.68 h -6.4 -6.4 v 35.52 35.52 h -3.52 -3.52 v -35.52 -35.52 h -6.4 -6.4 v 23.68 23.68 h -3.52 -3.52 v -23.68 -23.68 h -6.72 -6.72 v 23.68 23.68 h -3.52 -3.52 v -23.68 -23.68 h -6.4 -6.4 v 23.68 23.68 h -3.52 -3.52 v -23.68 -23.68 h -6.4 -6.4 v 23.68 23.68 h -3.52 -3.52 v -23.68 -23.68 h -6.4 -6.4 v 50.88 50.88 h -3.52 -3.52 v -50.88 -50.88 h -6.4 -6.4 v 23.68 23.68 h -3.52 -3.52 v -23.68 -23.68 h -6.72 -6.72 v 23.68 23.68 h -3.52 -3.52 v -23.68 -23.68 h -6.4 -6.4 v 23.68 23.68 h -3.52 -3.52 v -23.68 -23.68 h -6.4 -6.4 v 23.68 23.68 h -3.52 -3.52 v -23.68 -23.68 h -6.4 -6.4 v 35.52 35.52 h -3.52 -3.52 v -35.52 -35.52 h -6.4 -6.4 v 23.68 23.68 h -3.52 -3.52 v -23.68 -23.68 h -6.72 -6.72 v 23.68 23.68 h -3.52 -3.52 v -23.68 -23.68 h -6.4 -6.4 v 23.68 23.68 h -3.52 -3.52 v -23.68 -23.68 h -6.4 -6.4 v 23.68 23.68 h -3.52 -3.52 v -23.68 -23.68 h -6.4 -6.4 v 50.88 50.88 h -3.52 -3.52 v -50.88 -50.88 h -6.4 -6.4 v 23.68 23.68 h -3.52 -3.52 v -23.68 -23.68 h -6.7201 -6.72 v 23.68 23.68 h -3.52 -3.52 v -23.68 -23.68 h -6.4 -6.4 v 23.68 23.68 h -3.52 -3.52 v -23.68 -23.68 h -6.4 -6.4 v 23.68 23.68 h -3.52 -3.52 v -23.68 -23.68 h -6.4 -6.4 v 35.52 35.52 h -3.52 -3.52 v -35.52 -35.52 h -6.72 -6.72 v 23.68 23.68 h -3.52 -3.51995 v -23.68 -23.68 h -6.4 -6.40001 v 23.68 23.68 h -3.52 -3.52 v -23.68 -23.68 h -6.4 -6.4 v 23.68 23.68 h -3.52 -3.52 v -23.68 -23.68 h -6.4 -6.4 v 23.68 23.68 h -3.52 -3.52 v -23.68 -23.68 h -6.4 -6.4 v 50.88 50.88 h -3.52 -3.52 v -50.88 -50.88 h -6.72 -6.72 v 23.68 23.68 h -3.52 -3.52 v -23.68 -23.68 h -6.4 -6.4 v 23.68 23.68 h -3.52 -3.52 v -23.68 -23.68 h -6.4 -6.4 v 23.68 23.68 h -3.52 -3.52 v -23.68 -23.68 h -6.4 -6.4 v 23.68 23.68 h -3.52 -3.52 v -23.68 -23.68 h -6.4 -6.4 v 35.52 35.52 h -3.52 -3.52 v -35.52 -35.52 h -6.72 -6.72 v 23.68 23.68 h -3.52 -3.52 v -23.68 -23.68 h -6.4 -6.4 v 23.68 23.68 h -3.52 -3.52 v -23.68 -23.68 h -6.4 -6.40001 v 23.68 23.68 h -3.52 -3.52 v -23.68 -23.68 h -6.4 -6.4 v 23.68 23.68 h -3.52 -3.52 v -23.68 -23.68 h -6.4 -6.4 v 50.88 50.88 h -3.52 -3.52 v -50.88 -50.88 h -6.72 -6.72 v 23.68 23.68 h -3.52 -3.52 v -23.68 -23.68 h -6.4 -6.4 v 23.68 23.68 h -3.52 -3.52 v -23.68 -23.68 h -6.4 -6.4 v 23.68 23.68 h -3.52 -3.52 v -23.68 -23.68 h -6.4 -6.4 v 23.68 23.68 h -3.52 -3.52 v -23.68 -23.68 h -6.4 -6.4 v 35.52 35.52 h -3.52 -3.52 v -35.52 -35.52 h -6.72 -6.72 v 23.68 23.68 h -3.52 -3.52 v -23.68 -23.68 h -6.4 -6.4 v 23.68 23.68 h -3.52 -3.52 v -23.68 -23.68 h -6.4 -6.4 v 23.68 23.68 h -3.52 -3.52 v -23.68 -23.68 h -6.399998 -6.40001 v 23.68 23.68 h -3.52 -3.52 v -23.68 -23.68 h -6.72 -6.72 v 50.88 50.88 h -3.52 -3.52 v -50.88 -50.88 h -6.4 -6.4 v 23.68 23.68 h -3.52 -3.52 v -23.68 -23.68 h -6.4 -6.4 v 23.68 23.68 h -3.52 -3.52 v -23.68 -23.68 h -6.4 -6.4 v 23.68 23.68 h -3.52 -3.52 v -23.68 -23.68 h -6.4 -6.4 v 23.68 23.68 h -3.52 -3.52 v -23.68 -23.68 h -6.72 -6.72 v 35.52 35.52 h -3.52 -3.52 v -35.52 -35.52 h -6.4 -6.4 v 23.68 23.68 h -3.52 -3.52 v -23.68 -23.68 h -6.4 -6.4 v 23.68 23.68 h -3.52 -3.52 v -23.68 -23.68 h -6.4 -6.4 v 23.68 23.68 h -3.52 -3.52 v -23.68 -23.68 h -6.400002 -6.4 v 23.68 23.68 h -3.52 -3.52 v -23.68 -23.68 h -6.72 -6.72001 v 50.88 50.88 h -3.52 -3.52 v -50.88 -50.88 h -6.4 -6.4 v 23.68 23.68 h -3.52 -3.52 v -23.68 -23.68 h -6.4 -6.4 v 23.68 23.68 h -3.52 -3.52 v -23.76374 -23.76374 l -2.4,0.39669 c -1.32,0.21819 -4.2,0.39987 -6.4,0.40374 l -4,0.007 v 23.36001 23.36 h -3.52 -3.52 v -23.36 -23.36 h -6.4 -6.4 v 23.36 23.36 h -3.52 -3.52 v -23.36 -23.36 h -6.72 -6.72 v 35.2 35.2 h -3.52 -3.52 v -35.2 -35.2 h -6.4 -6.4 v 23.36 23.36 h -3.52 -3.52 v -23.36 -23.36 h -6.4 -6.4 v 23.36 23.36 h -3.52 -3.52 v -23.36 -23.36 h -6.4 -6.4 v 23.36 23.36 h -3.52 -3.52 v -23.36 -23.36 h -6.4 -6.4 v 23.36 23.36 h -3.52 -3.52 v -23.36 -23.36 h -5.44 -5.44 v 50.56 50.56 h -3.52 -3.52 v -50.56 -50.56 h -57.60001 -57.6 v 165.44 165.44001 H 641.47827 1732.0383 Z m -2068.16012,-1.23844 c -9.48963,-2.31023 -14.43519,-12.30541 -14.37768,-29.05786 0.0532,-15.49452 4.12393,-25.06576 12.09113,-28.42907 1.2576,-0.5309 4.20292,-0.98659 6.54514,-1.01266 3.52374,-0.0392 4.88996,0.2792 7.91735,1.84532 6.34254,3.28107 9.55464,9.64602 10.6314,21.06665 1.06228,11.26713 -0.66614,22.76564 -4.29291,28.55912 -3.71557,5.93534 -11.2523,8.79646 -18.51443,7.0285 z m 8.51178,-6.06075 c 4.59241,-2.38943 6.34374,-6.25917 7.27802,-16.08161 1.38762,-14.58842 -1.07588,-25.93862 -6.33535,-29.18915 -3.0587,-1.89038 -7.80257,-1.95248 -10.25698,-0.13428 -4.8734,3.61018 -6.24615,8.67769 -6.21541,22.94423 0.0239,11.07072 0.90051,15.75255 3.58973,19.17134 3.06395,3.89519 8.10603,5.28428 11.93999,3.28947 z m 586.32907,5.78561 c -5.5182,-1.48805 -10.1047,-5.95871 -11.8752,-11.57529 -0.61299,-1.94458 -0.99097,-3.64274 -0.84006,-3.77369 0.15091,-0.13095 1.7463,-0.40412 3.54534,-0.60705 l 3.27085,-0.36897 0.71923,2.35929 c 1.21517,3.98614 3.17242,6.52425 6.03226,7.82245 3.39936,1.54315 6.45747,1.56 9.77325,0.0539 8.33088,-3.78421 9.64781,-14.85758 2.42176,-20.36394 -2.0873,-1.59055 -2.88794,-1.79308 -7.08871,-1.79308 h -4.73568 l 0.36807,-1.84 c 0.20243,-1.012 0.36806,-2.19685 0.36806,-2.63301 0,-0.4548 1.22919,-0.96149 2.88205,-1.18803 8.37991,-1.1486 12.3161,-6.81984 9.36448,-13.49236 -1.03763,-2.34573 -1.8848,-3.22473 -4.05894,-4.21147 -3.53319,-1.60357 -5.84762,-1.59264 -9.22759,0.0436 -2.09798,1.01563 -3.10054,2.07421 -4.36205,4.60566 -0.90086,1.80782 -1.63795,3.62308 -1.63795,4.03391 0,0.55179 -0.87795,0.58782 -3.36,0.13789 -1.848,-0.335 -3.44435,-0.69205 -3.54745,-0.79344 -0.43936,-0.43205 2.46976,-6.99735 3.97504,-8.97088 3.88185,-5.08939 12.94835,-7.10674 20.13229,-4.47954 10.53267,3.85185 13.59622,16.71647 5.51616,23.16356 -1.22976,0.98127 -2.23604,1.96519 -2.23604,2.18648 0,0.22129 0.82618,0.74457 1.83597,1.16284 2.47635,1.02573 5.56122,4.31227 6.77159,7.21425 1.17228,2.81067 1.29446,8.3834 0.25094,11.44505 -3.21101,9.4208 -13.90963,14.65239 -24.25767,11.86192 z m 599.93204,-0.3111 c -9.5435,-3.29798 -13.665,-11.58279 -13.6417,-27.42166 0.027,-18.613 5.5401,-28.10049 17.626,-30.33469 4.4514,-0.82287 10.4809,0.58039 13.72,3.19304 2.2568,1.82038 4.6787,5.94305 5.3974,9.18799 0.3881,1.75214 0.3743,1.76 -3.0927,1.76 -3.403,0 -3.4992,-0.0504 -4.2113,-2.20801 -0.9392,-2.84602 -4.4678,-5.92965 -7.4186,-6.48323 -5.0701,-0.95116 -10.6273,2.66806 -13.1565,8.56844 -1.0784,2.51597 -2.6701,12.78859 -2.0891,13.48317 0.1106,0.1322 0.9931,-0.70095 1.9612,-1.85146 2.4684,-2.9335 7.4067,-5.09494 11.6582,-5.10265 5.3776,-0.01 8.3317,1.17014 11.9614,4.77749 3.9031,3.87903 5.3929,7.7094 5.3929,13.86626 0,13.99472 -11.5637,22.90006 -24.1072,18.56531 z m 9.8255,-5.25795 c 4.6256,-1.7526 7.2065,-6.38775 7.2276,-12.98064 0.016,-5.00489 -1.1045,-7.9486 -3.9312,-10.32711 -9.0108,-7.58212 -21.4693,1.57995 -18.4913,13.59862 1.9684,7.94403 8.6259,12.19804 15.1949,9.70913 z m 388.13653,5.26015 c -4.1941,-1.49993 -6.2141,-2.9538 -8.8191,-6.34747 -5.7246,-7.4575 -3.6828,-19.63009 3.9115,-23.3197 1.591,-0.77298 2.8905,-1.56402 2.8879,-1.75788 0,-0.19385 -1.1789,-1.02297 -2.6137,-1.84247 -5.0112,-2.86215 -6.5567,-10.29807 -3.4402,-16.55198 2.6966,-5.41142 7.4949,-8.01691 14.8483,-8.06259 3.8932,-0.0242 5.2166,0.27043 8.32,1.8523 10.1606,5.17897 11.2494,18.87601 1.8854,23.71836 l -1.9727,1.02011 2.9709,1.5099 c 5.1812,2.6331 7.6069,6.93431 7.6069,13.48805 0,9.86473 -6.7748,16.54791 -17.4577,17.22174 -3.5884,0.22634 -5.5137,0.006 -8.1275,-0.92837 z m 12.5122,-5.91899 c 3.8865,-1.88143 5.9537,-5.54818 5.9506,-10.55476 -0.01,-6.6241 -4.2368,-11.1795 -10.8305,-11.65644 -8.0158,-0.57981 -13.7649,5.60129 -12.5772,13.52209 1.206,8.04214 9.8775,12.35831 17.4571,8.68911 z m -0.3817,-29.55128 c 4.3143,-2.88208 5.5441,-8.67206 2.662,-12.5323 -4.3943,-5.88571 -12.1178,-5.93139 -16.0515,-0.095 -2.153,3.19426 -1.7456,8.16668 0.898,10.96066 2.339,2.47206 3.6696,3.02779 7.3715,3.07877 2.0474,0.0282 3.6083,-0.40232 5.12,-1.41218 z m 188.0165,35.65266 c -4,-1.23173 -7.8017,-5.02462 -9.1722,-9.15082 -0.5956,-1.79317 -0.9009,-3.55479 -0.6785,-3.9147 0.2225,-0.35992 1.6925,-0.65439 3.2667,-0.65439 2.1735,0 2.9419,0.26954 3.1927,1.12 1.4624,4.95727 4.9195,7.83716 9.41,7.83901 4.9269,0.002 8.8849,-2.93788 11.2958,-8.39025 1.3521,-3.0576 3.0585,-12.4873 2.3821,-13.16364 -0.2115,-0.21154 -1.576,0.69175 -3.0322,2.00732 -3.4668,3.13206 -6.4427,4.31556 -10.8514,4.31556 -6.9189,0 -12.5701,-3.75267 -15.5643,-10.33548 -1.945,-4.27598 -1.8552,-12.56587 0.1858,-17.17135 6.5532,-14.78628 28.1891,-13.82818 33.925,1.50229 2.9431,7.86614 2.9312,23.90451 -0.024,32.78577 -3.6625,11.00615 -13.7359,16.47459 -24.3352,13.21068 z m 11.7887,-26.74457 c 2.8074,-1.17303 6.0536,-5.01354 6.5717,-7.77491 0.8396,-4.47583 0.035,-10.21659 -1.8251,-13.02797 -5.8173,-8.79061 -18.3448,-5.08559 -20.3898,6.03031 -0.8808,4.78802 -0.012,8.34411 2.8277,11.5788 3.4053,3.87842 8.2734,5.0916 12.8155,3.19377 z m 203.6495,27.14622 c -9.4896,-2.31023 -14.4352,-12.30541 -14.3777,-29.05786 0.053,-15.49452 4.1239,-25.06576 12.0912,-28.42907 1.2576,-0.5309 4.2028,-0.98659 6.5451,-1.01266 8.1457,-0.0907 14.3397,4.76917 16.8766,13.24143 3.4066,11.37728 2.5994,28.00047 -1.7861,36.78151 -3.4093,6.82645 -11.5243,10.38158 -19.3491,8.47665 z m 8.5118,-6.06075 c 4.5924,-2.38943 6.3437,-6.25917 7.278,-16.08161 1.3876,-14.58842 -1.0759,-25.93862 -6.3353,-29.18915 -3.0587,-1.89038 -7.8026,-1.95248 -10.257,-0.13428 -4.8734,3.61018 -6.2462,8.67769 -6.2154,22.94423 0.024,11.07072 0.9005,15.75255 3.5897,19.17134 3.064,3.89519 8.106,5.28428 11.94,3.28947 z m -1819.54373,-17.0225 -0.16819,-22.4017 -3.2,2.29533 c -3.42224,2.45473 -8.81123,5.38806 -9.89872,5.38806 -0.36448,0 -0.66128,-1.39838 -0.66128,-3.11564 v -3.11565 l 4.2154,-2.46526 c 3.91359,-2.28875 12.4246,-10.36878 12.4246,-11.79544 0,-0.34541 1.008,-0.62801 2.24,-0.62801 h 2.24 v 29.12 29.12 h -3.51181 -3.51181 z m 184.134032,20.03146 c 0.828,-4.41363 3.01345,-7.53146 9.77813,-13.94977 18.09721,-17.17056 19.16994,-18.35034 20.33774,-22.36748 1.34148,-4.61451 0.68255,-7.45869 -2.40127,-10.36486 -6.51117,-6.13605 -16.97555,-3.3182 -19.10662,5.14503 l -0.75752,3.0084 -3.27633,-0.19054 c -3.21606,-0.18704 -3.27314,-0.22587 -3.10251,-2.11055 0.54773,-6.04984 5.61279,-12.15475 11.43746,-13.78555 3.65226,-1.02257 9.78598,-1.03714 13.4818,-0.032 6.62837,1.80266 11.40844,8.14829 11.35992,15.08049 -0.0533,7.61332 -3.13772,12.01865 -16.69541,23.84522 -8.01646,6.99285 -11.1176,10.15863 -11.1176,11.34933 0,0.18838 6.336,0.34251 14.08,0.34251 h 14.08 v 3.2 3.2 H 64.126972 44.855742 Z M 1646.9183,-534.88089 c 0,-12.42302 -0.2502,-22.4 -0.5617,-22.4 -0.3088,0 -0.9328,0.44732 -1.3865,0.99404 -0.9669,1.16493 -8.6009,5.68326 -10.6918,6.32811 -1.3598,0.41938 -1.44,0.26688 -1.44,-2.73792 0,-3.18078 0,-3.18281 3.4417,-5.12441 4.0707,-2.29739 10.9613,-8.51033 12.2916,-11.08288 0.7586,-1.46698 1.3678,-1.81694 3.1631,-1.81694 h 2.2236 v 29.12 29.12 h -3.52 -3.52 z m -1182.85846,14.24 -0.18163,-6.88 -12.64,-0.17353 -12.64,-0.17352 v -3.07756 c 0,-2.97332 0.45005,-3.71528 13.28762,-21.90647 l 13.28755,-18.82892 2.71245,-0.1968 2.71238,-0.1968 v 18.9168 18.9168 h 4.16 4.16 v 3.16946 3.16947 l -4,0.19053 -4,0.19054 -0.18163,6.88 -0.1817,6.88 h -3.15667 -3.15667 z m 0.13837,-26.4 c 0,-7.04 -0.216,-12.79429 -0.48,-12.78731 -0.264,0.007 -2.40185,2.81498 -4.75072,6.24 -2.34893,3.42502 -6.32633,9.17931 -8.83872,12.78731 l -4.568,6.56 h 9.31872 9.31872 z m 194.77996,32 c -6.3701,-1.32376 -11.6289,-5.95791 -13.3543,-11.7682 -0.5201,-1.75126 -0.9456,-3.41985 -0.9456,-3.70796 0,-0.28811 1.6682,-0.52384 3.7072,-0.52384 h 3.7073 l 0.7432,2.77888 c 1.5327,5.73076 8.2376,9.33723 13.8905,7.4716 5.576,-1.84024 8.7916,-6.73081 8.8015,-13.38602 0.01,-4.86842 -0.7904,-7.32385 -3.2105,-9.8816 -2.565,-2.71101 -4.7776,-3.62286 -8.7907,-3.62286 -3.987,0 -7.0407,1.16989 -9.2824,3.55606 -1.0515,1.1193 -2.1199,1.55116 -3.7577,1.51896 -4.6849,-0.0921 -4.6104,0.63154 -1.5784,-15.31502 1.506,-7.92 2.7542,-14.472 2.774,-14.56 0.02,-0.088 6.516,-0.16 14.436,-0.16 h 14.4 v 3.2 3.2 h -11.7082 -11.7082 l -1.4118,7.24418 c -0.7765,3.9843 -1.4118,7.54027 -1.4118,7.90214 0,0.36188 1.3786,-0.0243 3.0635,-0.85817 7.1944,-3.56045 14.7002,-2.37647 20.2495,3.19416 4.1917,4.2077 5.7977,8.73854 5.3442,15.07646 -0.7458,10.42281 -7.8014,17.90768 -17.7772,18.8585 -1.936,0.18452 -4.717,0.0867 -6.1801,-0.21727 z m 394.91393,-4.20293 c 0.5711,-5.57445 3.6663,-17.36798 6.0935,-23.21815 2.6733,-6.4434 6.6817,-13.56824 10.3892,-18.4664 1.7069,-2.25517 3.1035,-4.22905 3.1035,-4.38641 0,-0.15736 -6.336,-0.28611 -14.08,-0.28611 h -14.08 v -3.2 -3.2 h 18.88 18.88 v 2.29405 c 0,1.74106 -0.6834,3.1681 -2.8348,5.92 -9.8982,12.66031 -16.9632,28.75943 -18.9951,43.28404 l -0.7641,5.46191 h -3.5114 -3.5114 z"
       id="path293" />
  </g>
</svg>
