<?xml version="1.0" encoding="UTF-8" standalone="no"?>
<!-- Created with Inkscape (http://www.inkscape.org/) -->

<svg
   version="1.1"
   id="svg379"
   width="962.6059"
   height="82.219452"
   viewBox="0 0 962.6059 82.219452"
   sodipodi:docname="ramita.svg"
   inkscape:version="1.2.2 (b0a8486541, 2022-12-01)"
   xmlns:inkscape="http://www.inkscape.org/namespaces/inkscape"
   xmlns:sodipodi="http://sodipodi.sourceforge.net/DTD/sodipodi-0.dtd"
   xmlns="http://www.w3.org/2000/svg"
   xmlns:svg="http://www.w3.org/2000/svg">
  <defs
     id="defs383" />
  <sodipodi:namedview
     id="namedview381"
     pagecolor="#ffffff"
     bordercolor="#000000"
     borderopacity="0.25"
     inkscape:showpageshadow="2"
     inkscape:pageopacity="0.0"
     inkscape:pagecheckerboard="0"
     inkscape:deskcolor="#d1d1d1"
     showgrid="false"
     inkscape:zoom="0.49239675"
     inkscape:cx="201.05738"
     inkscape:cy="-149.26987"
     inkscape:window-width="1880"
     inkscape:window-height="1080"
     inkscape:window-x="40"
     inkscape:window-y="0"
     inkscape:window-maximized="1"
     inkscape:current-layer="g385" />
  <g
     inkscape:groupmode="layer"
     inkscape:label="Image"
     id="g385"
     transform="translate(-405.08564,-763.49653)">
    <g
       id="g1932"
       transform="translate(443.68172,118.39994)">
      <path
         style="fill:#552200;fill-opacity:1;stroke:#280b0b;stroke-width:3.205;stroke-dasharray:none"
         d="m 361.40736,724.98683 c -1.925,-0.42607 -7.1,-1.95671 -11.5,-3.40143 -31.91615,-10.47946 -62.1072,-16.66516 -108.86771,-22.30536 -50.89706,-6.13916 -107.82861,-9.68627 -193.842183,-12.07732 -29.49987,-0.82005 -54.2463603,-2.41892 -63.71801,-4.11682 -4.49025,-0.80492 -7.03077,-2.46324 -11.56905,-7.5517 -6.02795,-6.75869 -8.78617,-12.43465 -8.89635,-18.30718 -0.10949,-5.83596 1.0356,-7.78441 5.54315,-9.43207 l 2.98766,-1.09209 16.18124,0.21469 c 8.8996897,0.11808 28.10625,0.72268 42.68125,1.34356 69.623473,2.9659 108.435953,4.41106 167.000003,6.21814 19.525,0.60248 36.45874,1.17754 37.63054,1.27791 1.1718,0.10039 10.61055,0.35155 20.97499,0.55814 10.36444,0.20659 26.50569,0.79211 35.86945,1.30114 34.51256,1.87618 42.72539,2.05343 104.14954,2.24769 121.15058,0.38316 177.37561,-1.74532 239.0829,-9.05081 7.57738,-0.89708 14.10732,-1.44523 17.21666,-1.44523 4.37374,0 5.44516,0.15934 8.4452,1.25595 3.43706,1.25636 9.26047,6.03407 10.35226,8.49333 0.79739,1.79611 -0.23115,2.72777 -5.82204,5.2737 -2.82603,1.28688 -5.86322,2.88998 -6.74933,3.56245 -1.51134,1.14696 -1.49813,1.25286 0.21323,1.71027 1.00337,0.26819 8.41958,1.06848 16.48046,1.77842 28.39976,2.50123 27.54058,2.47482 82.54931,2.53699 52.89141,0.0598 74.61115,-0.33247 109.10678,-1.97032 39.5308,-1.87692 41.1061,-4.5079 45.6291,-1.82261 4.8562,2.88313 9.8709,9.24849 9.8709,12.52957 0,1.83185 -2.549,3.43823 -6.3855,4.02419 -3.6258,0.55375 -16.1135,1.37445 -30.8484,2.02735 -9.7215,0.43076 -11.4149,4.79267 -5.7306,5.24902 3.6819,0.29561 8.5334,1.73915 10.4878,3.12062 2.3834,1.68475 3.6966,7.4974 2.5884,11.45707 -1.1491,4.10535 -5.2959,8.09246 -8.0191,7.71014 -16.3907,-2.30116 -65.99175,-8.30993 -104.17049,-11.15625 -27.16275,-2.02506 -81.35476,-3.76963 -142.92206,-4.60099 -70.84594,-0.95666 -117.60516,-1.95982 -162.92733,-3.49542 -14.53504,-0.49247 -29.83504,-0.89678 -34,-0.89846 -4.16497,-0.002 -17.02267,-0.32928 -28.57267,-0.72801 -11.55,-0.39871 -25.1625,-0.72631 -30.25,-0.728 l -9.25,-0.003 v 0.95404 c 0,1.49293 3.15954,6.00364 14.98163,11.79887 13.89342,6.81059 16.57897,5.95702 15.09391,7.76885 -2.00956,2.45174 -17.24011,7.80467 -27.7857,9.76559 -5.30614,0.98665 -8.8502,0.9881 -13.28984,0.005 z"
         id="path506"
         sodipodi:nodetypes="cssssssscsssssssssssssssssssssssssssscsccsssscc" />
      <path
         style="fill:none;fill-opacity:1;stroke:#280b0b;stroke-width:2.005;stroke-dasharray:none;stroke-opacity:1"
         d="m -13.664615,673.58062 c 0,0 323.260755,10.97143 381.391935,44.04881"
         id="path1512" />
      <path
         style="fill:none;fill-opacity:1;stroke:#280b0b;stroke-width:1.75419;stroke-dasharray:none;stroke-opacity:1"
         d="m 99.395513,668.82992 c 4.615197,-2.18522 653.292137,13.24992 677.967277,31.21866"
         id="path1921" />
      <path
         style="fill:none;fill-opacity:1;stroke:#280b0b;stroke-width:2.005;stroke-dasharray:none;stroke-opacity:1"
         d="m 904.76623,675.26695 c 0,0 -153.55822,15.9082 -247.68871,5.64594"
         id="path1923" />
      <path
         style="fill:none;fill-opacity:1;stroke:#280b0b;stroke-width:2.005;stroke-dasharray:none;stroke-opacity:1"
         d="m 653.02237,658.39698 c -2.38976,0.6569 -382.1866,14.34859 -487.591,2.33247"
         id="path1925" />
    </g>
  </g>
</svg>
